<mxfile host="app.diagrams.net" modified="2021-08-09T11:37:33.682Z" agent="5.0 (Macintosh; Intel Mac OS X 10_15_7) AppleWebKit/537.36 (KHTML, like Gecko) Chrome/91.0.4472.114 Safari/537.36" etag="MP_3NLZXYhPaS8CxPdao" version="14.9.2" type="github">
  <diagram id="xG9WrDhXwfoE1JoBaSLJ" name="Page-1">
    <mxGraphModel dx="649" dy="367" grid="1" gridSize="10" guides="1" tooltips="1" connect="1" arrows="1" fold="1" page="1" pageScale="1" pageWidth="827" pageHeight="1169" math="0" shadow="0">
      <root>
        <mxCell id="0" />
        <mxCell id="1" parent="0" />
        <mxCell id="V0x4IGZ1ICtQj0jvs1d1-1" value="Android WebKit Framework" style="rounded=1;whiteSpace=wrap;html=1;" vertex="1" parent="1">
          <mxGeometry x="240" y="130" width="310" height="40" as="geometry" />
        </mxCell>
        <mxCell id="V0x4IGZ1ICtQj0jvs1d1-2" value="WebKit" style="rounded=1;whiteSpace=wrap;html=1;" vertex="1" parent="1">
          <mxGeometry x="240" y="190" width="310" height="40" as="geometry" />
        </mxCell>
        <mxCell id="V0x4IGZ1ICtQj0jvs1d1-3" value="" style="rounded=1;whiteSpace=wrap;html=1;" vertex="1" parent="1">
          <mxGeometry x="240" y="260" width="310" height="70" as="geometry" />
        </mxCell>
        <mxCell id="V0x4IGZ1ICtQj0jvs1d1-4" value="WTF" style="rounded=1;whiteSpace=wrap;html=1;" vertex="1" parent="1">
          <mxGeometry x="314" y="265" width="56" height="15" as="geometry" />
        </mxCell>
        <mxCell id="V0x4IGZ1ICtQj0jvs1d1-5" value="V8" style="rounded=1;whiteSpace=wrap;html=1;" vertex="1" parent="1">
          <mxGeometry x="250" y="265" width="50" height="15" as="geometry" />
        </mxCell>
        <mxCell id="V0x4IGZ1ICtQj0jvs1d1-6" value="WebCore" style="text;html=1;strokeColor=none;fillColor=none;align=center;verticalAlign=middle;whiteSpace=wrap;rounded=0;" vertex="1" parent="1">
          <mxGeometry x="490" y="265" width="40" height="20" as="geometry" />
        </mxCell>
      </root>
    </mxGraphModel>
  </diagram>
</mxfile>
